<svg xmlns="http://www.w3.org/2000/svg" xmlns:xlink="http://www.w3.org/1999/xlink" width="251" height="408"><style><![CDATA[.B{fill:#d3def8}.C{fill:#fff}.D{opacity:.2}.E{fill:#b8c5e3}.F{fill:#0e1823}.G{fill:#f2f6ff}.H{fill:#18bc27}.I{mask:url(#Y)}.J{stroke-linecap:round}.K{stroke-linejoin:round}]]></style><defs><path id="A" d="M5.918.003L.003 5.85l1.562 1.546L7.418 1.56z"/><path id="B" d="M5.902.913c-.13.198-.134.38-.013.548s.308.18.56.036c-.128.213-.123.393.016.54s.32.152.543.014c-.165.228-.174.396-.03.504s.295.08.45-.082L8.046.83 7.54.313l-1.637.6z"/><linearGradient id="C" x1="0%" y1="17.361%" y2="78.858%"><stop offset="0%" stop-color="#a1b5e5"/><stop offset="100%" stop-color="#d3def8"/></linearGradient><linearGradient id="D" x1="84.37%" x2="27.774%" y1="62.795%" y2="31.563%"><stop offset="0%" stop-color="#a1b5e5"/><stop offset="100%" stop-color="#d3def8"/></linearGradient><path id="E" d="M2.862 11.05c.207-.21 2.487-2.08 3.316-1.977s2.695 3.016 3.42 3.224.726-.312.933-1.248 1.865-1.664 2.384-.104-.415 2.497-.104 3.225 1.885.93 2.557 1.69l1.26 1.527-4.173 3.755-1.302-1.354c-.968 1.18-1.762 1.665-2.384 1.457-.933-.312-2.487-2.08-2.902-2.185s-1.45.416-1.658-.208.104-2.154-.207-2.913-1.45-2.912-1.45-3.537.103-1.144.3-1.352z"/><linearGradient id="F" x1="17.722%" x2="84.203%" y1="2.548%" y2="87.24%"><stop offset="0%" stop-color="#f2f6ff"/><stop offset="100%" stop-color="#d3def8"/></linearGradient><path id="G" d="M30.083.017L.017 29.757l7.938 7.867 29.753-29.7z"/><path id="H" d="M30 5.7c-.66 1.007-.683 1.935-.066 2.785s1.566.91 2.845.184c-.65 1.085-.623 2.002.083 2.75s1.626.772 2.762.067c-.838 1.163-.888 2.02-.15 2.566s1.5.41 2.283-.42L40.9 5.282l-2.58-2.634L30.002 5.7z"/><rect id="I" width="12.774" height="44.358" rx="1.092"/><path id="J" d="M6.24 0h5.754a.78.78 0 0 1 .78.78v14.98H0V6.24A6.24 6.24 0 0 1 6.24 0z"/><path id="K" d="M30.083.017L.017 29.757l7.938 7.867 29.753-29.7z"/><path id="L" d="M30 5.7c-.66 1.007-.683 1.935-.066 2.785s1.566.91 2.845.184c-.65 1.085-.623 2.002.083 2.75s1.626.772 2.762.067c-.838 1.163-.888 2.02-.15 2.566s1.5.41 2.283-.42L40.9 5.282l-2.58-2.634L30.002 5.7z"/><path id="M" d="M1.727 18.77a45.239 45.239 0 0 0-.872-8.846C-.008 5.623 4.507.743 5.53.28c1.063-.48-.014 3.157.338 7.018.196 2.15 1.4 3.307 1.3 5.276s-1.528.834-1.7 3.343l-.165 3.035-3.564-.18z"/><path id="N" d="M3.4 0c.954.604 2.206.725 3.757.363 4.77 33.6 4.114 50.415-1.968 50.415S-1.49 33.852 3.398 0z"/><path id="O" d="M18.265 45.888c-7.76-3.504-13.087-10.733-13.087-19.08 0-11.782 10.61-21.334 23.695-21.334s23.694 9.552 23.694 21.334a19.41 19.41 0 0 1-.241 3.053c10.756 2.355 18.57 9.45 18.57 17.836 0 10.31-11.8 18.666-26.376 18.666s-26.377-8.357-26.377-18.666a13.39 13.39 0 0 1 .122-1.808z"/><path id="P" d="M44.9 28.005c10.755 2.355 18.57 9.45 18.57 17.835 0 10.3-11.8 18.667-26.377 18.667-8.992 0-16.933-3.184-21.694-8.046-3.782 1.483-8.134 2.327-12.764 2.327-14.567 0-26.376-8.358-26.376-18.667 0-9.194 9.393-16.836 21.76-18.38C-.272 11.48 9.56 3.618 21.435 3.618c13.086 0 23.694 9.55 23.694 21.334a19.41 19.41 0 0 1-.24 3.053z"/><path id="Q" d="M14.663 37.206c-6.3-2.827-10.607-8.66-10.607-15.395C4.056 12.305 12.654 4.6 23.26 4.6s19.206 7.706 19.206 17.212a15.66 15.66 0 0 1-.195 2.463c8.718 1.9 15.052 7.624 15.052 14.4 0 8.318-9.572 15.06-21.38 15.06s-21.38-6.742-21.38-15.06a10.69 10.69 0 0 1 .1-1.458z"/><path id="R" d="M36.244 22.774c8.718 1.9 15.052 7.624 15.052 14.4 0 8.318-9.572 15.06-21.38 15.06-7.288 0-13.725-2.57-17.584-6.49C9.266 46.93 5.74 47.6 1.986 47.6c-11.807 0-21.38-6.743-21.38-15.06 0-7.42 7.615-13.584 17.638-14.83C-.36 9.443 7.6 3.1 17.234 3.1 27.84 3.1 36.44 10.805 36.44 20.3c0 .837-.067 1.66-.195 2.464z"/><path id="S" d="M35.84 6.055L5.772 35.795l7.938 7.867 29.753-29.7z"/><path id="T" d="M35.458 11.605l6.864-10.483-4.5 13.083c-1.587.817-2.58.934-2.977.353s-.193-1.566.612-2.953z"/></defs><g fill="none" fill-rule="evenodd" opacity=".996"><path d="M-46.598 135.362l242.916 125.736 40.09 29.357c8.422 6.167 10.25 17.994 4.082 26.415a18.9 18.9 0 0 1-5.284 4.894l-128.325 79.62a39.42 39.42 0 0 1-41.685-.074L-199.96 235.482c-8.85-5.535-11.537-17.196-6.003-26.046a18.9 18.9 0 0 1 7.01-6.59L-75.52 135.86a31.32 31.32 0 0 1 28.923-.498z" class="E"/><path d="M-44.896 113.75l279.5 170.133c8.916 5.428 11.744 17.055 6.317 25.972a18.9 18.9 0 0 1-6.498 6.426l-129.01 76.565a39.42 39.42 0 0 1-40.615-.227l-275.35-167.6c-8.916-5.427-11.745-17.055-6.318-25.97a18.9 18.9 0 0 1 6.499-6.427l133.198-79.05a31.32 31.32 0 0 1 32.269.18z" class="B"/><path d="M-29.77 138.473l258.332 153.665a11.56 11.56 0 0 1 4.024 15.84 11.556 11.556 0 0 1-3.983 3.999l-124.18 74.56a33.113 33.113 0 0 1-34.64-.336L-176.85 231.5a15.88 15.88 0 0 1-5.014-21.886 15.876 15.876 0 0 1 5.796-5.473l120.165-66.117a26.309 26.309 0 0 1 26.132.439z" class="C"/><path d="M34.64 134.004c1.778-.853 2.93-1.56 3.46-2.122.794-.842 1.016.716 1.116.778s3.112-.296 3.6 1.074-6.75 3.07-7.447 2.903c-.464-.11-.704-1-.72-2.633z" class="B"/><path fill="#083fb5" d="M35.372 128.098l.284.826 2.085-.718-.284-.826a.241.241 0 0 0-.307-.15l-1.63.56a.241.241 0 0 0-.15.307z"/><g transform="matrix(.898794 .438371 .438371 -.898794 32.585597 134.726272)"><g transform="translate(0 .923)"><mask id="U" class="C"><use xlink:href="#A"/></mask><use fill="#4b79ff" xlink:href="#A"/><path d="M7.05 1.2L1.137 7.036l1.56 1.546 5.854-5.836z" mask="url(#U)" class="D F"/></g><path fill="#000" d="M7.52.317l.826-.314-.32.844z"/><mask id="V" class="C"><use xlink:href="#B"/></mask><use fill="#f7e0bc" xlink:href="#B"/><path d="M6.976 2.074l1.35-2.06-.885 2.57c-.312.16-.508.184-.586.07s-.038-.308.12-.58z" mask="url(#V)" class="D F"/></g><path fill="url(#C)" d="M8.808 9.7c-2.273-.75-3.234-1.36-2.885-1.836s1.4-.25 3.147.672L8.808 9.7z" transform="matrix(-1 0 0 1 45.145 124.82)"/><path fill="#3864d9" d="M34.572 134.015c.68.453 1.366 2.885 1.05 2.885s-5.507 2.097-9.702 1.048-13.373-8.915-11.013-12.323c.815-1.178 3.176-1.7 6.03 0 1.945 1.157 2.885 3.933 6.294 6.293s7.056 1.908 7.34 2.097z"/><g transform="matrix(-.945519 -.325568 -.325568 .945519 32.887642 106.107203)"><path fill="#001e76" d="M7.55 9.224c-.78-.336-1.324-.664-1.632-.984-.463-.48-.362-.896-.36-1.128s-.937-.264-1.067-.92.392-.962.683-1.5S7.268 3.57 7.688 3.56s6.386.044 7.88.838c.995.53 1.62 1.604 1.876 3.223.378-.1.8-.004 1.266.322.698.488 1.665 1.822 1.06 4.3s-3.513 6.62-5.985 8.116c-1.647.998-3.726-2.717-6.236-11.145z"/><use fill="url(#D)" transform="rotate(44 9.589 15.18)" xlink:href="#E"/></g><path fill="url(#F)" d="M8.457 53.074c.7-5.943.874-10.925.524-14.945l-4.007-8.155c.175 6.467 0 11.71-.525 15.732l4.008 7.368z" transform="matrix(-.939693 -.34202 -.34202 .939693 59.461576 102.830646)"/><path d="M30.077 143.843c1.778-.852 2.93-1.56 3.46-2.12.794-.844 1.97-1.447 2.114-.822s-1.098 1.537-1 1.6 3.113-.296 3.59 1.074-6 3.224-6.705 3.056c-.464-.11-.95-1.04-1.46-2.787zm-17.902 63.245h-3.18v5.432h3.18z" class="B"/><path fill="#000" d="M12.08 211.162c.45 0 0 .1.677.44s4.063 1.494 4.176 2.372-2.373 1.097-3.275 1.097-4.84-.458-4.88-.666c-.113-.548-.452-2.962-.113-3.182s.593.707 2.06.707c.552 0 .904-.768 1.356-.768z"/><path d="M22.62 207.088h-3.18v5.432h3.18z" class="B"/><path fill="#000" d="M22.522 211.162c.452 0 0 .1.678.44s4.063 1.494 4.176 2.372-2.47 1.133-3.275 1.097-4.84-.458-4.882-.666c-.113-.548-.45-2.962-.113-3.182s.594.707 2.062.707c.55 0 .903-.768 1.354-.768z"/><path fill="#0c2c8a" d="M23.37 161.284c.83 9.357 1.283 18 1.36 25.96.117 11.926-1.36 20.634-1.36 21.37s-4.538 1.106-4.538 0 .087-17.8-.253-20.85c-.227-2.026-1.254-6.92-3.083-14.683L15.2 188.81l-2.042 19.805c-.3 1.01-4.475 1.305-4.724 0s.782-17.926.754-19.805-1.435-13.453-2.4-20.185a51.946 51.946 0 0 1-.525-6.293l17.115-1.05z"/><path fill="#4d7bf3" d="M18.727 123.63l2.122-.095-.707 2.19 2.893 17.943c1.31 9.7 1.05 11.324 1.05 17.093s-3.115 1.268-8.785 3.933c-3.37 1.584-9.308 2.097-9.308-2.884s-.077-10.644 1.05-20.452 4.126-15.563 4.457-17.305c.22-1.162.645-2 1.27-2.515l5.96 2.093z"/><path fill="#3864d9" d="M18.054 131.393c1.402 2.18.2 1.916 3.67 7.866 4.15 7.14 9.807 3.218 10.488 3.67s1.104 2.87.317 3.395-8.97 3.16-13.95.014-10.75-14.16-8.4-17.568 5.243-1.455 7.866 2.622z"/><path fill="#f7f7f7" d="M52.896 268.924L13.7 293.73l75.8 43.774 14.987-8.463z"/><g transform="translate(34.162 215.968)"><path fill="#a3b0cd" d="M24.2 47.12l45.825-25.973 44.097 27.14L69.17 74.26z"/><path fill="#09bfff" d="M69.25 22.898h1.16v36.77h-1.16z"/><path d="M69.498 22.8L21.305 50.33l-5.855-3.527L69.103 15.53l54.177 32.65-5.446 3.174z" class="G"/><path fill="#0c2c8a" d="M65.794 95.78v-4.928H78.21v4.927a1.34 1.34 0 0 1-1.341 1.342h-9.734a1.34 1.34 0 0 1-1.342-1.342z"/><g transform="rotate(315 62.53 -23.367)"><g transform="translate(0 5.751)"><mask id="W" class="C"><use xlink:href="#G"/></mask><use xlink:href="#G" class="H"/><use xlink:href="#S" mask="url(#W)" class="D F"/></g><path d="M38.22 2.665L43.405.118 40.8 5.366z" class="H"/><mask id="X" class="C"><use xlink:href="#H"/></mask><use xlink:href="#H" class="H"/><use xlink:href="#T" mask="url(#X)" class="D F"/></g><g transform="rotate(168 31.402 39.97)"><mask id="Y" class="C"><use xlink:href="#I"/></mask><use xlink:href="#I" class="B"/><path d="M2.884 0h11.683a1.09 1.09 0 0 1 1.092 1.092v42.174c0 .603-.5 1.092-1.092 1.092H2.884V0z" class="E I"/><path d="M3.71 0H15.4a1.09 1.09 0 0 1 1.092 1.092v42.174c0 .603-.5 1.092-1.092 1.092H3.71V0z" class="B I"/><path stroke="#b8c5e3" stroke-width=".5" d="M-.412 1.424h2.678m-2.678 1.22H1.03m-1.442 1.22H1.03m-1.442 1.22H1.03m-1.442 1.22H1.03M-.412 7.936h2.678m-2.678 1.22H1.03m-1.442 1.22H1.03m-1.442 1.22H1.03m-1.442 1.22H1.03m-1.442 1.628h2.678m-2.678 1.22H1.03m-1.442 1.22H1.03M-.412 18.1H1.03m-1.442 1.22H1.03m-1.442 1.628h2.678m-2.678 1.22H1.03M-.412 23.4H1.03m-1.442 1.22H1.03m-1.442 1.22H1.03m-1.442 1.63h2.678M-.412 28.7H1.03M-.412 29.9H1.03m-1.442 1.222H1.03m-1.442 1.22H1.03M-.412 33.98h2.678M-.412 35.2H1.03m-1.442 1.22H1.03m-1.442 1.22H1.03m-1.442 1.22H1.03m-1.442 1.628h2.678m-2.678 1.22H1.03m-1.442 1.22H1.03m-1.442 1.22H1.03m-1.442 1.22H1.03" class="I J K"/></g><g transform="translate(69.249 33.404)"><mask id="Z" class="C"><use xlink:href="#J"/></mask><use xlink:href="#J" class="B"/><path fill="#c5d1ec" d="M12.046 0H17.8a.78.78 0 0 1 .78.78v14.98H5.806V6.24A6.24 6.24 0 0 1 12.046 0z" mask="url(#Z)"/></g><path d="M67.507 46.828h16.258v28.015H67.507z" class="E"/><path d="M70.4 52.08h11.032v18.094H70.4zm28.26-32.855v4.927H87.486v-4.927c0-.74.6-1.342 1.342-1.342h8.5a1.34 1.34 0 0 1 1.341 1.342z" class="B"/><g transform="rotate(135 51.972 49.601)"><g transform="translate(0 5.751)"><mask id="a" class="C"><use xlink:href="#K"/></mask><use xlink:href="#K" class="E"/><use xlink:href="#S" mask="url(#a)" class="D G"/></g><path fill="#000" d="M38.22 2.665L43.405.118 40.8 5.366z"/><mask id="b" class="C"><use xlink:href="#L"/></mask><use fill="#f7e0bc" xlink:href="#L"/><use xlink:href="#T" mask="url(#b)" class="D F"/></g><g transform="translate(38.66 6.277)"><mask id="c" class="C"><use xlink:href="#M"/></mask><use transform="rotate(357 3.955 9.594)" xlink:href="#M" class="B"/><path d="M7.382 18.224C5.59 15.49 4.33 12.705 3.606 9.87 2.518 5.62 4.762.517 5.758.001c1.035-.536 2.16 3.147 2.714 6.986.308 2.137 1.56 3.23 1.564 5.2s.96.475.92 2.99c-.028 1.677-.03 2.69-.006 3.04l-3.57.007z" mask="url(#c)" class="E"/></g><g transform="translate(37.508 23.786)"><mask id="d" class="C"><use xlink:href="#N"/></mask><use xlink:href="#N" class="B"/><path stroke="#c5d1ec" stroke-width="1.31" d="M2.504-.18C4.294.922 6.202 1.1 8.23.385" mask="url(#d)" class="J K"/><path fill-rule="nonzero" d="M-.294 29.117a1.227 1.227 0 0 1-.88-1.487 1.21 1.21 0 0 1 1.468-.891c4.44 1.125 7.575 1.338 9.32.714a1.207 1.207 0 0 1 1.545.747 1.23 1.23 0 0 1-.738 1.564c-2.3.826-5.85.586-10.715-.647z" mask="url(#d)" class="B"/></g><path d="M123.068 48.243l-.182 33.766-53.472 31.443.182-33.765z" class="E"/><path d="M70.015 79.347l-.182 33.766L15.476 80.26l.182-33.765z" class="B"/><path d="M69.185 72.43L117.38 44.9l5.854 3.53L69.58 79.702 15.406 46.54l5.218-2.647z" class="G"/><g class="C"><ellipse cx="92.877" cy="85.185" rx="3.572" ry="4.932" transform="rotate(15 92.877 85.185)" class="D"/><ellipse cx="106.719" cy="75.322" rx="3.572" ry="4.932" transform="rotate(15 106.72 75.322)" class="D"/></g></g><g transform="translate(58 -3)" class="D"><use transform="rotate(10 38.037 35.918)" xlink:href="#O" class="E"/><use transform="rotate(10 19.854 34.063)" xlink:href="#P" class="B"/></g><g transform="translate(195 78)" class="D"><use transform="rotate(10 30.69 29.162)" xlink:href="#Q" class="E"/><use transform="rotate(10 15.951 27.661)" xlink:href="#R" class="B"/></g><path fill="#f7f7f7" d="M191.222 290.778L173 302.333 193.444 315l12.223-5.778z"/><path d="M213 292.556l-.98 8.596c-.3 2.63-1.666 5.025-3.78 6.622s-4.788 2.258-7.4 1.828a11.67 11.67 0 0 1-9.773-11.809l.155-6.126 21.778.89z" class="B"/><ellipse cx="202.111" cy="292.544" rx="10.889" ry="6.432" class="G"/><ellipse cx="202.074" cy="292.298" rx="9.467" ry="5.609" class="B"/><path stroke="#fff" stroke-opacity=".134" stroke-width=".72" d="M196.34 289.227c-1.466 1.157-1.955 2.047-1.466 2.67.733.936-.267.802 0 1.603.178.534.667.935 1.467 1.202m10.13-.264c.316-.796.942-1.283 1.877-1.462 1.403-.268 1.484-1.027 1.537-1.87.035-.562-.42-1.144-1.362-1.745m-10.536 3.746c.837-.183 1.6.063 2.26.738 1.007 1.013 1.682.656 2.4.23.486-.285.714-.987.685-2.106m-6.788 3.7c2.035-.18 3.388.07 4.06.744 1.006 1.013 2.163 1.478 2.83.367.444-.74 1.407-1.11 2.888-1.11" class="J K"/><g class="E"><path d="M202.333 293.667c.303 0 2.72-11.254 2.72-18.16S203.62 263 201.852 263s-3.2 5.6-3.2 12.506 3.38 18.16 3.68 18.16z"/><path d="M202.324 293.67c.247.173 5.044-6.268 7.943-10.41s4.438-8.066 3.435-8.768-4.165 2.086-7.064 6.227-4.56 12.778-4.314 12.95z"/><path d="M202.34 293.638c.253-.14-2.536-7.588-4.987-12s-5.305-7.524-6.375-6.93.05 4.658 2.5 9.08 8.6 10 8.863 9.86z"/></g></g></svg>