<svg xmlns="http://www.w3.org/2000/svg" xmlns:xlink="http://www.w3.org/1999/xlink" width="324" height="240"><style><![CDATA[.B{fill:#d3def8}.C{fill:#4d7bf3}.D{opacity:.8}.E{fill:#c5d1ec}.F{stroke-linecap:round}.G{stroke-linejoin:round}.H{fill-rule:nonzero}.I{fill-opacity:.177}]]></style><defs><linearGradient id="A" x1="84.37%" x2="27.774%" y1="62.795%" y2="31.563%"><stop offset="0%" stop-color="#a1b5e5"/><stop offset="100%" stop-color="#d3def8"/></linearGradient><path id="B" d="M2.674 4.544c.182-.184 2.19-1.836 2.92-1.744S7.97 5.462 8.608 5.646s.64-.276.822-1.102 1.643-1.47 2.1-.092-.366 2.203-.092 2.846 1.66.822 2.253 1.5l1.11 1.348-3.675 3.313-1.148-1.194c-.852 1.04-1.552 1.47-2.1 1.285-.82-.275-2.2-1.836-2.556-1.928s-1.278.368-1.46-.183.09-1.9-.183-2.57S2.4 6.29 2.4 5.737s.09-1 .274-1.193z"/><path id="C" d="M14.335 7.564h22.242a.8.8 0 0 1 .692 1.202L26.548 27.21a.8.8 0 0 1-.692.398H3.614a.8.8 0 0 1-.692-1.202l10.72-18.443a.8.8 0 0 1 .692-.398z"/><path id="D" d="M14.335 7.564h22.242a.8.8 0 0 1 .692 1.202L26.548 27.21a.8.8 0 0 1-.692.398H3.614a.8.8 0 0 1-.692-1.202l10.72-18.443a.8.8 0 0 1 .692-.398z"/><path id="E" d="M178.8 88.643c-1.467.932-2.533 1.465-3.2 1.598-1 .2-2 .8-1.6 1.198s1.66-.104 1.66 0-2.86 1.398-2.06 2.397 6.4-2.197 6.6-2.796c.133-.4-.333-1.2-1.4-2.397z"/><path id="F" d="M-.6 17.176l13.385-3.25a.8.8 0 0 1 .946 1.034l-3.13 9.207 10.545-3.39a.8.8 0 0 1 1.033.896L20.8 29.76"/></defs><g fill="none" fill-rule="evenodd" opacity=".996"><path d="M3.478 86.167l138.225-81.43a5.2 5.2 0 0 1 5.235-.026l78.504 45.226a5.2 5.2 0 0 1 .043 8.986L87.26 140.354a5.2 5.2 0 0 1-5.235.026L3.522 95.153a5.2 5.2 0 0 1-.044-8.986z" class="B"/><path fill="#f2f6ff" d="M3.478 82.572l138.225-81.43a5.2 5.2 0 0 1 5.235-.026l78.504 45.226a5.2 5.2 0 0 1 .043 8.986L87.26 136.76a5.2 5.2 0 0 1-5.235.025L3.522 91.558a5.2 5.2 0 0 1-.044-8.986z"/><path d="M168.278 184.433l138.225-81.43a5.2 5.2 0 0 1 5.235-.025l78.504 45.226a5.2 5.2 0 0 1 .043 8.986L252.06 238.62a5.2 5.2 0 0 1-5.235.026l-78.504-45.226a5.2 5.2 0 0 1-.044-8.986z" class="B"/><path fill="#f2f6ff" d="M167.865 180.56L306.09 99.13a5.2 5.2 0 0 1 5.235-.026l78.504 45.226a5.2 5.2 0 0 1 .044 8.986l-138.224 81.43a5.2 5.2 0 0 1-5.236.026l-78.504-45.226a5.2 5.2 0 0 1-.043-8.986z"/><path d="M230.674 151.658l25.25 15.575a.28.28 0 0 1-.03.492l-4.3 2a.28.28 0 0 1-.265-.016l-25.25-15.574a.28.28 0 0 1 .03-.493l4.3-2a.28.28 0 0 1 .265.016zm-9.6 6.782l53.7 33.8a.28.28 0 0 1-.032.49l-4.314 2a.28.28 0 0 1-.267-.017l-53.7-33.8a.28.28 0 0 1 .032-.49l4.314-2a.28.28 0 0 1 .267.017zm-12 7.99l53.7 33.8a.28.28 0 0 1-.032.49l-4.314 2.002a.28.28 0 0 1-.267-.018l-53.7-33.8a.28.28 0 0 1 .032-.49l4.314-2a.28.28 0 0 1 .267.017z" class="B"/><path d="M140.66 17.86c-7.544 0-13.66 3.863-13.66 8.628s6.116 8.628 13.66 8.628 13.662-3.863 13.662-8.628H140.66V17.86z" class="E"/><path d="M140.66 15.863c-7.544 0-13.66 3.863-13.66 8.628s6.116 8.628 13.66 8.628 13.662-3.863 13.662-8.628H140.66v-8.628zm14.74 7.91c0-4.765-6.116-8.628-13.66-8.628v8.628h13.66z" class="B"/><path fill="#d2def7" d="M111.39 29.914l63.567 36.7a.4.4 0 0 1 0 .692l-8.587 5a.4.4 0 0 1-.401 0l-63.567-36.7a.4.4 0 0 1-.001-.693l8.588-4.998a.4.4 0 0 1 .4-.001zm-19.6 12.782l63.567 36.7a.4.4 0 0 1 0 .693l-8.587 5a.4.4 0 0 1-.401 0L82.8 48.388a.4.4 0 0 1-.001-.692l8.588-5a.4.4 0 0 1 .4 0z"/><ellipse cx="164.2" cy="120" fill="#4b79ff" rx="2.8" ry="1.798"/><ellipse cx="164.2" cy="119.202" fill="#fff" rx="2.8" ry="1.798"/><path fill="#001e76" d="M192.613 54.044c-.686-.296-1.165-.585-1.437-.867-.408-.424-.32-.8-.315-.995s-.826-.232-.94-.8.346-.85.603-1.332 1.845-.983 2.215-.993 5.628.036 6.944.735c.877.466 1.427 1.414 1.65 2.842.334-.098.706-.004 1.116.283.615.43 1.466 1.606.93 3.802s-3.1 5.84-5.278 7.162c-1.453.88-3.283-2.395-5.49-9.827z"/><use xlink:href="#E" class="B"/><path fill="#ffbfb6" d="M194.706 136.523h2.8v4.793h-2.8zm-9.2 0h2.8v4.793h-2.8z"/><path fill="#0c2c8a" d="M185.6 140.118c-.397 0 0 .097-.596.388s-3.58 1.32-3.678 2.094 2.278 1.167 2.884.968 4.263-.404 4.3-.588c.1-.484.398-2.614.1-2.808s-.523.624-1.816.624c-.485 0-.795-.678-1.193-.678z"/><path fill="#3e69da" d="M190 67.87c-1 2.09-1.916 7.132-4.964 12.383-3.656 6.3-6.236 8.2-6.836 8.59s1.2 3.195 1.8 2.996 11.8-7.4 15.2-14.78.2-10.186-1.2-10.785-1.8-2.996-4 1.597z"/><use fill="url(#A)" transform="rotate(44 38.257 263.69)" xlink:href="#B"/><path fill="#0c2c8a" d="M185.045 95.434c-.73 8.04-1.13 15.684-1.2 22.932-.102 10.87 1.2 18.81 1.2 19.48s3.997 1.008 3.997 0 .5-16.373.8-19.144L191 107.417l3.038 30.43c.265.92 3.943 1.2 4.162 0s-.7-16.34-.664-18.053c.001-.102.657-.227.664-.392.106-2.58 1-12.92 1-19.573v-4.994l-14.155.6z"/><path d="M192.146 64.1l-1.87-.084.623 1.932c-2.254 6.747-3.554 12.052-3.9 15.914-.833 9.3-2.7 15.867-3 17.976-.52 3.526 3.15.844 8.146 3.195 2.97 1.398 7.296 3.995 7.654-2.396s.958-14.53.958-22.17-1.466-10.645-1.758-12.183c-.195-1.026-.645-1.64-1.35-1.848l-5.504-.336z" class="C"/><path d="M259.95 138.036l2.228 1.286a.252.252 0 0 1 .002.436l-14.607 8.626a.252.252 0 0 1-.254 0l-2.228-1.285a.252.252 0 0 1-.002-.436l14.607-8.626a.252.252 0 0 1 .254 0zm3.132 5.74l2.227 1.286a.252.252 0 0 1 0 .436l-11.208 6.557a.252.252 0 0 1-.253 0l-2.227-1.285a.252.252 0 0 1-.001-.436l11.2-6.557a.252.252 0 0 1 .253 0zm3.068 6.637l2.224 1.284a.252.252 0 0 1-.001.437l-7.425 4.233a.252.252 0 0 1-.25-.001l-2.224-1.284a.252.252 0 0 1 0-.437l7.426-4.233a.252.252 0 0 1 .25.001zm14.718.545l2.228 1.286a.252.252 0 0 1 .002.435l-14.607 8.626a.252.252 0 0 1-.254.001l-2.228-1.286a.252.252 0 0 1-.002-.435l14.607-8.626a.252.252 0 0 1 .254-.001zm3.132 5.74l2.227 1.285a.252.252 0 0 1 0 .436l-11.208 6.557a.252.252 0 0 1-.253 0l-2.227-1.285a.252.252 0 0 1-.001-.436l11.2-6.557a.252.252 0 0 1 .253 0zm3.07 6.636l2.223 1.284a.252.252 0 0 1-.001.437l-7.425 4.233a.252.252 0 0 1-.25 0l-2.224-1.284a.252.252 0 0 1 0-.438l7.426-4.232a.252.252 0 0 1 .25 0zm14.716-.89l2.228 1.287a.252.252 0 0 1 .002.435l-14.607 8.626a.252.252 0 0 1-.254.001l-2.228-1.286a.252.252 0 0 1-.002-.435l14.607-8.626a.252.252 0 0 1 .254-.002zm3.132 5.74l2.227 1.286a.252.252 0 0 1 .001.436l-11.2 6.557a.252.252 0 0 1-.253 0l-2.227-1.285a.252.252 0 0 1-.001-.436l11.2-6.557a.252.252 0 0 1 .253 0zm3.07 6.637l2.223 1.284a.252.252 0 0 1-.001.437l-7.425 4.233a.252.252 0 0 1-.25-.001l-2.224-1.284a.252.252 0 0 1 0-.437l7.426-4.233a.252.252 0 0 1 .25.001z" class="B"/><g transform="translate(267.4 110.613)"><mask id="G" fill="#fff"><use xlink:href="#C"/></mask><use transform="rotate(30 20.096 17.585)" xlink:href="#C" class="B"/><g class="E"><use xlink:href="#F" mask="url(#G)"/><ellipse cx="20.4" cy="16.577" mask="url(#G)" rx="3.2" ry="1.798"/></g></g><g transform="translate(293.8 126.192)"><mask id="H" fill="#fff"><use xlink:href="#D"/></mask><use transform="rotate(30 20.096 17.585)" xlink:href="#D" class="B"/><g class="E"><use xlink:href="#F" mask="url(#H)"/><ellipse cx="20.4" cy="16.577" mask="url(#H)" rx="3.2" ry="1.798"/></g></g><path fill="#000" fill-opacity=".377" d="M170.6 156.55l-12.8 7.4c-26-11.917-39.857-20.67-41.6-26.26s7.724-10.95 28.4-16.082l26 34.952z" opacity=".08"/><path stroke="#4d7bf3" stroke-width="2.4" d="M167.2 137.376l9.52-6.07a5.2 5.2 0 0 0-.117-8.841l-72.836-43.773a15.6 15.6 0 0 0-17.856 1.25l-2.1 1.71" class="F G"/><path d="M143 115.606l27.4 15.58v25.365L143 141.172z" class="B"/><path fill="#3864d9" d="M56.102 66.867l65.092 34.585.002 2.658a.4.4 0 0 1-.187.339l-12.374 7.807a2.4 2.4 0 0 1-2.486.045L43.62 75.958a.4.4 0 0 1-.198-.372l.182-2.75 12.134-5.974a.4.4 0 0 1 .364.006z"/><path d="M57.436 64.412l63.577 36.706a.4.4 0 0 1 .009.687l-12.277 7.527a2.4 2.4 0 0 1-2.454.032l-62.546-36.11a.4.4 0 0 1-.01-.687l13.292-8.15a.4.4 0 0 1 .409-.005z" class="C"/><g stroke="#fff" stroke-width=".5"><ellipse cx="79" cy="85.185" rx="2.365" ry="1.469" class="D"/><ellipse cx="79" cy="85.087" rx="4.533" ry="2.742" class="D"/><ellipse cx="79" cy="85.248" rx="6.8" ry="4.194" class="D"/></g><path fill="#b8c5e3" d="M170.4 130.985l28-16.377v25.564l-28 16.377z"/><ellipse cx="226" cy="197.294" fill="#3590ff" stroke="#4b79ff" stroke-width="3.2" rx="7.8" ry="4.793"/><path stroke="#4d7bf3" stroke-width="2.4" d="M155.8 137.177l-3.914 3.086a6.8 6.8 0 0 0 .53 11.059L218.6 193.9" class="F G"/><path fill="#3864d9" d="M225.6 206.484c-6.653 0-12.2-3.425-12.2-7.99s5.547-8 12.2-8 12.2 3.424 12.2 8-5.547 8-12.2 8zm0-2.4c5.497 0 9.8-2.657 9.8-5.59s-4.303-5.6-9.8-5.6-9.8 2.656-9.8 5.6 4.303 5.6 9.8 5.6z" class="H"/><ellipse cx="225.6" cy="197.113" rx="12" ry="7.408" class="C"/><path fill="#f1f5fe" d="M171.26 99.098l27.242 15.728L170.4 131.2l-27.312-15.603z"/><path stroke="#000" stroke-opacity=".058" stroke-width="1.6" d="M154.6 115.806c5.1-.347 8.843.186 11.2 1.598s3.3 3.542 2.8 6.39" class="F G"/><path d="M155.143 116.194a.8.8 0 0 1-.896-1.057.8.8 0 0 1 .61-.518c5.016-.9 8.8-.63 11.354.9 2.633 1.578 3.83 4.266 3.587 7.93a.8.8 0 0 1-1.25.628.8.8 0 0 1-.346-.734c.204-3.1-.732-5.205-2.813-6.45-2.16-1.294-5.576-1.546-10.246-.698z" class="C H"/><ellipse cx="155" cy="116.405" fill="#000" rx="2.8" ry="1.798" class="I"/><ellipse cx="155" cy="115.606" rx="2.8" ry="1.798" class="C"/><ellipse cx="169" cy="124.394" fill="#000" rx="2.8" ry="1.798" class="I"/><ellipse cx="169" cy="123.595" rx="2.8" ry="1.798" class="C"/><g fill="#18bc27"><path d="M170.2 108.308l6.8-3.487 6.8 3.624-6.8 3.697z"/><path d="M170.2 108.308l6.8 3.834v2.466l-6.8-3.795z"/><path d="M177 112.142l6.8-3.697v2.328l-6.8 3.835zm.84-10.48v7.352h-1.96v-7.456a2.78 2.78 0 0 1-1.68-2.547 2.79 2.79 0 0 1 2.8-2.78 2.79 2.79 0 0 1 2.8 2.78c-.003 1.217-.797 2.29-1.96 2.65z"/></g><use xlink:href="#E" x="2.4" y="5.992" class="B"/><path fill="#3e69da" d="M193 71.267c-1 2.088-2.116 8.93-5.164 14.18-3.656 6.3-7.236 9.188-7.836 9.587s1.2 3.196 1.8 2.996 12.8-8.388 16.2-15.778 1.4-13.78 0-14.38-2.8-1.2-5 3.395z"/><g stroke="#fff" stroke-width=".5"><ellipse cx="225.4" cy="196.232" rx="2.365" ry="1.469" class="D"/><ellipse cx="225.4" cy="196.134" rx="4.533" ry="2.742" class="D"/><ellipse cx="225.4" cy="196.295" rx="6.8" ry="4.194" class="D"/></g></g></svg>