<?xml version="1.0" encoding="utf-8"?>
<!-- Generator: Adobe Illustrator 24.1.1, SVG Export Plug-In . SVG Version: 6.00 Build 0)  -->
<svg version="1.1" id="Layer_1" xmlns="http://www.w3.org/2000/svg" xmlns:xlink="http://www.w3.org/1999/xlink" x="0px" y="0px"
	 viewBox="0 0 512 512" style="enable-background:new 0 0 512 512;" xml:space="preserve">
<style type="text/css">
	.st0{fill:#D0021B;}
</style>
<g>
	<path d="M156.1,301.7c25.6,0,46.4-20.8,46.4-46.4s-20.8-46.4-46.4-46.4s-46.4,20.8-46.4,46.4S130.5,301.7,156.1,301.7z M46.4,394.6
		c25.6,0,46.4-20.8,46.4-46.4c0-25.6-20.8-46.4-46.4-46.4S0,322.5,0,348.2C0,373.8,20.8,394.6,46.4,394.6z M465.6,394.6
		c25.6,0,46.4-20.8,46.4-46.4c0-25.6-20.8-46.4-46.4-46.4s-46.4,20.8-46.4,46.4C419.2,373.8,439.9,394.6,465.6,394.6z"/>
	<path class="st0" d="M313.1,257.3c-1.5-15.5-2.2-28.4-14.1-37.5c-15-11.5-32.1-4-53.1-11.6c-20.6-5-35.9-23.3-35.9-45.1
		c0-25.7,21.2-46.5,47.3-46.5c19.3,0,35.9,11.4,43.3,27.8c11.2,21.3,3.9,42.9,18,53.8c16.7,12.9,39.1,3.5,64.2,15.7
		c8.1,3.7,14.9,9.6,19.7,16.8c4.8,7.3,7.6,16,7.6,25.3c0,21.8-15.3,40.1-35.9,45.1c-21,7.6-38,0.1-53.1,11.6
		c-16.9,12.9-7.9,34.5-21.7,57.4c-7.8,15-23.7,25.3-42.1,25.3c-26.1,0-47.3-20.8-47.3-46.5c0-18.6,11.2-34.7,27.3-42.1
		c25.1-12.2,47.5-2.8,64.2-15.7C311.1,283.7,313.1,272.2,313.1,257.3z"/>
</g>
</svg>
